<svg width="120" height="107" viewBox="0 0 120 107" fill="none" xmlns="http://www.w3.org/2000/svg">
<path fill-rule="evenodd" clip-rule="evenodd" d="M108.184 1.36792C107.86 1.56398 106.923 2.74944 106.103 4.00198C101.176 11.524 95.0265 16.3928 87.1841 18.9809C82.2892 20.5964 79.2104 20.8676 65.7244 20.8719C58.1259 20.8744 55.69 20.9419 53.9483 21.1984C36.2913 23.7995 22.7296 37.3889 20.154 55.0617C19.8269 57.3059 19.735 62.7628 20.0003 64.1895L20.1432 64.959L22.6224 63.2988C37.5951 53.2719 56.349 47.7945 76.5443 47.5498C80.5174 47.5017 80.6858 47.5353 81.6741 48.5762C83.0947 50.0724 82.6011 52.5785 80.6763 53.6431C80.4329 53.7777 78.2679 53.9336 75.408 54.0222C54.4675 54.6723 36.7113 60.5045 22.0026 71.5639C13.4243 78.014 5.72006 87.0056 1.58027 95.399L0.103302 98.3937L0.104335 100.368C0.106194 104.277 2.73535 106.993 6.52269 106.998C9.7233 107.003 11.398 105.743 13.3761 101.845C15.9908 96.6926 19.1229 92.5275 24.1014 87.5821L27.4969 84.2094L28.8046 85.8224C36.0109 94.7115 46.6453 99.9943 57.9915 100.321C86.9017 101.154 110.992 80.405 117.455 49.1054C119.697 38.247 119.509 25.7384 116.942 14.9755C115.791 10.1487 113.262 3.08256 112.322 2.06727C111.309 0.973322 109.376 0.646626 108.184 1.36792Z" fill="#99FF85"/>
</svg>
