<svg width="336" height="90" viewBox="0 0 336 90" fill="none" xmlns="http://www.w3.org/2000/svg">
<path fill-rule="evenodd" clip-rule="evenodd" d="M32.2683 2.15663C29.4901 3.7735 28.6829 6.9827 28.6829 16.422V28.5997H17.5601C1.86029 28.5997 0 31.0618 0 51.8274C0 70.0019 3.08751 77.7199 10.3607 77.7199C13.4175 77.7199 14.3415 79.1444 14.3415 83.86C14.3415 87.5645 15.4089 90 17.0315 90C18.5107 90 22.3706 87.237 25.6098 83.86C30.3978 78.8681 33.1759 77.7199 40.4696 77.7199C54.2517 77.7199 57.3659 75.18 57.3659 63.9437V54.4042L64.1227 60.9454C72.494 69.0523 75.8049 69.2283 75.8049 61.5676C75.8049 56.9707 76.9419 55.3661 80.9002 54.3735C90.1422 52.0546 92.6868 45.1123 91.8878 24.3856C90.9515 0.0669723 90.7651 -0.0742544 59.5355 0.00761262C46.5094 0.0424061 34.2392 1.00844 32.2683 2.15663ZM82.9756 27.5764V48.0431L76.3171 48.6837C71.863 49.1135 69.6585 50.405 69.6585 52.5827C69.6585 55.5155 69.2836 55.5012 65.9113 52.4537C63.4589 50.2351 58.5664 49.0665 51.7378 49.0665C34.7699 49.0665 34.8293 49.1422 34.8293 27.6991C34.8293 17.3123 35.4726 8.17181 36.2593 7.38794C37.044 6.60201 47.878 6.21928 60.3325 6.53447L82.9756 7.10958V27.5764ZM57.6301 13.7797C56.2923 16.2746 52.877 18.9005 50.0415 19.6107C45.3211 20.7937 45.1531 21.2009 48.0521 24.402C49.7936 26.3258 51.2195 30.3394 51.2195 33.3214C51.2195 38.3787 51.5678 38.5854 56.3968 36.3893C60.3222 34.6026 62.1559 34.6128 63.9773 36.4323C67.8126 40.2637 70.0048 39.2301 69.3061 33.917C68.9517 31.2112 70.3019 27.1895 72.3056 24.9771C75.8397 21.0741 75.7741 20.9185 70.099 19.7847C66.7124 19.1072 63.3688 16.643 62.1559 13.9291L60.0621 9.24017L57.6301 13.7797ZM283.756 15.8059C276.233 17.5579 274.537 20.6361 274.537 32.5334C274.537 46.6084 276.669 49.0665 288.878 49.0665C301.087 49.0665 303.22 46.6084 303.22 32.5334C303.22 18.2537 296.827 12.7605 283.756 15.8059ZM100.39 32.693C100.39 48.7943 100.476 49.0665 105.512 49.0665C109.61 49.0665 110.634 48.0431 110.634 43.9498C110.634 40.7651 111.796 38.8331 113.707 38.8331C115.619 38.8331 116.78 40.7651 116.78 43.9498C116.78 48.2703 117.737 49.0665 122.927 49.0665C128.717 49.0665 129.073 48.5978 129.073 41.0005C129.073 36.5633 128.088 32.3267 126.885 31.5837C125.68 30.8408 125.217 28.878 125.852 27.2202C128.512 20.2984 123.306 16.3196 111.587 16.3196H100.39V32.693ZM131.976 19.0929C131.39 20.6197 131.19 27.7565 131.53 34.9546L132.146 48.0431L145.107 48.6571C157.604 49.2486 158.043 49.1013 157.4 44.5638C156.892 40.9841 155.013 39.5535 149.561 38.5916C142.962 37.427 142.857 37.3042 148.264 37.0566C153.341 36.8232 154.007 36.109 153.177 31.772C152.591 28.7102 153.294 26.3443 154.986 25.6955C156.51 25.1122 157.756 22.7646 157.756 20.4764C157.756 15.327 133.914 14.0478 131.976 19.0929ZM163.579 21.948C162.329 25.0446 160.856 32.4106 160.303 38.3214C159.313 48.8945 159.387 49.0665 164.865 49.0665C168.709 49.0665 170.764 47.7996 171.503 44.9731C172.093 42.7218 173.282 40.8798 174.146 40.8798C175.011 40.8798 176.199 42.7218 176.789 44.9731C177.512 47.7382 179.584 49.0665 183.173 49.0665C189.615 49.0665 190.715 36.4733 185.388 23.7327C181.19 13.6978 167.365 12.566 163.579 21.948ZM195.044 18.7756C193.692 20.1264 192.585 26.3893 192.585 32.693C192.585 46.6923 194.724 49.0665 207.337 49.0665C216.46 49.0665 217.171 48.696 217.171 43.9498C217.171 39.4675 216.284 38.8331 210 38.8331C203.458 38.8331 202.829 38.3132 202.829 32.9161C202.829 27.6071 203.616 26.9071 210.512 26.0925C223.897 24.5084 225.366 25.6914 225.366 38.0492C225.366 48.9252 225.444 49.0665 231.512 49.0665C237.597 49.0665 237.659 48.9518 237.659 37.8097C237.659 27.9181 238.154 26.553 241.756 26.553C244.762 26.553 245.854 25.1879 245.854 21.4363V16.3196H221.678C205.607 16.3196 196.679 17.1424 195.044 18.7756ZM247.902 21.4363C247.902 24.621 249.064 26.553 250.976 26.553C253.024 26.553 254.049 28.5997 254.049 32.693C254.049 36.7864 253.024 38.8331 250.976 38.8331C249.064 38.8331 247.902 40.7651 247.902 43.9498C247.902 48.7881 248.517 49.0665 259.171 49.0665C269.824 49.0665 270.439 48.7881 270.439 43.9498C270.439 40.7651 269.277 38.8331 267.366 38.8331C265.317 38.8331 264.293 36.7864 264.293 32.693C264.293 28.5997 265.317 26.553 267.366 26.553C269.277 26.553 270.439 24.621 270.439 21.4363C270.439 16.598 269.824 16.3196 259.171 16.3196C248.517 16.3196 247.902 16.598 247.902 21.4363ZM307.317 32.693C307.317 48.7943 307.403 49.0665 312.439 49.0665C316.981 49.0665 317.569 48.1966 317.627 41.3914C317.688 34.1994 317.881 33.9661 320.7 37.689C322.353 39.8748 323.707 43.3276 323.707 45.364C323.707 48.1127 325.289 49.0665 329.854 49.0665H336V32.693V16.3196H329.854C324.877 16.3196 323.687 17.1956 323.601 20.9247L323.492 25.5297L320.278 20.9247C318.473 18.3397 314.922 16.3196 312.189 16.3196C307.465 16.3196 307.317 16.817 307.317 32.693ZM113.707 26.553C114.404 27.6787 113.996 28.5997 112.804 28.5997C111.611 28.5997 110.634 27.6787 110.634 26.553C110.634 25.4273 111.04 24.5063 111.538 24.5063C112.036 24.5063 113.011 25.4273 113.707 26.553ZM290.927 32.693C290.927 36.0701 290.005 38.8331 288.878 38.8331C287.751 38.8331 286.829 36.0701 286.829 32.693C286.829 29.316 287.751 26.553 288.878 26.553C290.005 26.553 290.927 29.316 290.927 32.693ZM28.6829 41.7864C28.6829 50.2822 34.5342 55.2065 44.6286 55.2065C51.2769 55.2065 51.449 55.4193 50.8302 62.8815L50.1951 70.5566L38.9514 71.1931C32.3236 71.5676 26.2244 73.1681 24.0978 75.092C20.7992 78.074 20.4878 78.074 20.4878 75.0961C20.4878 72.9184 18.2833 71.627 13.8293 71.1972L7.17073 70.5566L6.56224 55.3989C5.75502 35.2698 6.05824 34.7397 18.3755 34.7397H28.6829V41.7864Z" fill="black"/>
</svg>
